<svg xmlns="http://www.w3.org/2000/svg" width="1400" height="620" viewBox="0 0 1400 620">
<rect width="100%" height="100%" fill="white"/>
<text x="80" y="28" font-size="22" font-family="Arial">Whistler burst overview</text>
<text x="80" y="50" font-size="14" font-family="Arial">2017-07-29 15:58:44.471211044 to 2017-07-29 15:59:44.471211044</text>
<rect x="80" y="70" width="1240" height="140" fill="none" stroke="#cccccc"/>
<text x="80" y="62" font-size="16" font-family="Arial">Velocity Vx [km/s]</text>
<polyline fill="none" stroke="#0b6e4f" stroke-width="2" points="80.0,188.0 89.3,188.0 98.5,188.0 107.8,188.0 117.0,188.0 126.3,188.0 135.5,188.0 144.8,188.0 154.0,188.0 163.3,188.0 172.5,188.0 181.8,188.0 191.0,188.0 200.3,188.0 209.6,188.0 218.8,188.0 228.1,184.8 237.3,184.8 246.6,184.8 255.8,184.8 265.1,184.8 274.3,184.8 283.6,184.8 292.8,184.8 302.1,162.3 311.3,162.3 320.6,162.3 329.9,162.3 339.1,162.3 348.4,162.3 357.6,162.3 366.9,162.3 376.1,151.3 385.4,151.3 394.6,151.3 403.9,151.3 413.1,151.3 422.4,151.3 431.6,151.3 440.9,151.3 450.1,151.3 459.4,151.3 468.7,151.3 477.9,151.3 487.2,151.3 496.4,151.3 505.7,151.3 514.9,151.3 524.2,92.0 533.4,92.0 542.7,92.0 551.9,92.0 561.2,92.0 570.4,92.0 579.7,92.0 589.0,92.0 598.2,92.0 607.5,92.0 616.7,92.0 626.0,92.0 635.2,92.0 644.5,92.0 653.7,92.0 663.0,92.0 672.2,112.0 681.5,112.0 690.7,112.0 700.0,112.0 709.3,112.0 718.5,112.0 727.8,112.0 737.0,112.0 746.3,112.0 755.5,112.0 764.8,112.0 774.0,112.0 783.3,112.0 792.5,112.0 801.8,112.0 811.0,112.0 820.3,112.0 829.6,112.0 838.8,112.0 848.1,112.0 857.3,112.0 866.6,112.0 875.8,112.0 885.1,112.0 894.3,112.0 903.6,134.2 912.8,134.2 922.1,134.2 931.3,134.2 940.6,134.2 949.9,134.2 959.1,134.2 968.4,160.8 977.6,160.8 986.9,160.8 996.1,160.8 1005.4,160.8 1014.6,160.8 1023.9,160.8 1033.1,160.8 1042.4,160.8 1051.6,160.8 1060.9,160.8 1070.1,160.8 1079.4,160.8 1088.7,160.8 1097.9,160.8 1107.2,160.8 1116.4,150.1 1125.7,150.1 1134.9,150.1 1144.2,150.1 1153.4,150.1 1162.7,150.1 1171.9,150.1 1181.2,150.1 1190.4,150.1 1199.7,150.1 1209.0,150.1 1218.2,133.8 1227.5,133.8 1236.7,133.8 1246.0,133.8 1255.2,133.8 1264.5,133.8 1273.7,133.8 1283.0,133.8 1292.2,133.8 1301.5,133.8 1310.7,133.8 1320.0,133.8"/>
<text x="10" y="86" font-size="12" font-family="Arial">977.65</text>
<text x="10" y="204" font-size="12" font-family="Arial">593.87</text>
<rect x="80" y="218" width="1240" height="140" fill="none" stroke="#cccccc"/>
<text x="80" y="210" font-size="16" font-family="Arial">Magnetic Field Bz [nT]</text>
<polyline fill="none" stroke="#b22222" stroke-width="2" points="80.0,241.3 89.3,241.3 98.5,241.3 107.8,241.3 117.0,241.3 126.3,241.3 135.5,241.3 144.8,241.3 154.0,241.3 163.3,241.3 172.5,241.3 181.8,241.3 191.0,241.3 200.3,241.3 209.6,241.3 218.8,241.3 228.1,240.0 237.3,240.0 246.6,240.0 255.8,240.0 265.1,240.0 274.3,240.0 283.6,240.0 292.8,240.0 302.1,246.9 311.3,246.9 320.6,246.9 329.9,246.9 339.1,246.9 348.4,246.9 357.6,246.9 366.9,246.9 376.1,269.7 385.4,269.7 394.6,269.7 403.9,269.7 413.1,269.7 422.4,269.7 431.6,269.7 440.9,269.7 450.1,269.7 459.4,269.7 468.7,269.7 477.9,269.7 487.2,269.7 496.4,269.7 505.7,269.7 514.9,269.7 524.2,336.0 533.4,336.0 542.7,336.0 551.9,336.0 561.2,336.0 570.4,336.0 579.7,336.0 589.0,336.0 598.2,336.0 607.5,336.0 616.7,336.0 626.0,336.0 635.2,336.0 644.5,336.0 653.7,336.0 663.0,336.0 672.2,293.8 681.5,293.8 690.7,293.8 700.0,293.8 709.3,293.8 718.5,293.8 727.8,293.8 737.0,293.8 746.3,293.8 755.5,293.8 764.8,293.8 774.0,293.8 783.3,293.8 792.5,293.8 801.8,293.8 811.0,293.8 820.3,293.8 829.6,293.8 838.8,293.8 848.1,293.8 857.3,293.8 866.6,293.8 875.8,293.8 885.1,293.8 894.3,293.8 903.6,272.4 912.8,272.4 922.1,272.4 931.3,272.4 940.6,272.4 949.9,272.4 959.1,272.4 968.4,259.3 977.6,259.3 986.9,259.3 996.1,259.3 1005.4,259.3 1014.6,259.3 1023.9,259.3 1033.1,259.3 1042.4,259.3 1051.6,259.3 1060.9,259.3 1070.1,259.3 1079.4,259.3 1088.7,259.3 1097.9,259.3 1107.2,259.3 1116.4,268.6 1125.7,268.6 1134.9,268.6 1144.2,268.6 1153.4,268.6 1162.7,268.6 1171.9,268.6 1181.2,268.6 1190.4,268.6 1199.7,268.6 1209.0,268.6 1218.2,252.2 1227.5,252.2 1236.7,252.2 1246.0,252.2 1255.2,252.2 1264.5,252.2 1273.7,252.2 1283.0,252.2 1292.2,252.2 1301.5,252.2 1310.7,252.2 1320.0,252.2"/>
<text x="10" y="234" font-size="12" font-family="Arial">10.26</text>
<text x="10" y="352" font-size="12" font-family="Arial">4.33</text>
<rect x="80" y="366" width="1240" height="140" fill="none" stroke="#cccccc"/>
<text x="80" y="358" font-size="16" font-family="Arial">Whistler-Band Power [0.1-0.5 fce]</text>
<polyline fill="none" stroke="#1f4e79" stroke-width="2" points="80.0,nan 89.3,483.9 98.5,483.7 107.8,483.8 117.0,483.7 126.3,483.7 135.5,483.7 144.8,483.4 154.0,483.5 163.3,483.5 172.5,483.4 181.8,483.8 191.0,483.5 200.3,482.0 209.6,483.5 218.8,nan 228.1,nan 237.3,483.7 246.6,483.6 255.8,483.7 265.1,483.6 274.3,482.9 283.6,472.9 292.8,468.3 302.1,479.9 311.3,481.4 320.6,480.2 329.9,481.3 339.1,483.1 348.4,483.2 357.6,483.4 366.9,nan 376.1,nan 385.4,483.8 394.6,483.9 403.9,483.6 413.1,483.8 422.4,483.9 431.6,483.9 440.9,483.3 450.1,483.9 459.4,483.7 468.7,483.7 477.9,483.2 487.2,482.0 496.4,463.2 505.7,388.0 514.9,nan 524.2,nan 533.4,483.8 542.7,483.7 551.9,483.6 561.2,483.9 570.4,483.9 579.7,483.5 589.0,482.3 598.2,482.4 607.5,481.6 616.7,481.8 626.0,483.2 635.2,483.8 644.5,483.8 653.7,483.8 663.0,nan 672.2,nan 681.5,484.0 690.7,483.9 700.0,483.7 709.3,483.6 718.5,483.8 727.8,483.8 737.0,483.8 746.3,483.9 755.5,483.9 764.8,483.9 774.0,483.8 783.3,483.9 792.5,483.7 801.8,483.8 811.0,483.9 820.3,483.7 829.6,483.6 838.8,483.8 848.1,483.8 857.3,483.6 866.6,483.9 875.8,483.7 885.1,483.7 894.3,483.7 903.6,483.7 912.8,483.9 922.1,484.0 931.3,483.8 940.6,483.9 949.9,483.8 959.1,nan 968.4,nan 977.6,483.7 986.9,483.8 996.1,483.6 1005.4,481.8 1014.6,476.6 1023.9,470.2 1033.1,475.4 1042.4,458.8 1051.6,481.9 1060.9,483.6 1070.1,483.5 1079.4,483.7 1088.7,483.2 1097.9,483.5 1107.2,nan 1116.4,nan 1125.7,476.3 1134.9,476.1 1144.2,463.0 1153.4,468.6 1162.7,472.4 1171.9,480.6 1181.2,482.9 1190.4,480.1 1199.7,482.0 1209.0,473.2 1218.2,431.7 1227.5,460.7 1236.7,479.8 1246.0,475.2 1255.2,nan 1264.5,nan 1273.7,483.8 1283.0,483.8 1292.2,483.6 1301.5,483.5 1310.7,483.5 1320.0,483.7"/>
<text x="10" y="382" font-size="12" font-family="Arial">26000.03</text>
<text x="10" y="500" font-size="12" font-family="Arial">87.67</text>
<rect x="80" y="514" width="1240" height="140" fill="none" stroke="#cccccc"/>
<text x="80" y="506" font-size="16" font-family="Arial">Whistler Score</text>
<polyline fill="none" stroke="#6b4f9d" stroke-width="2" points="80.0,nan 89.3,631.7 98.5,629.7 107.8,630.2 117.0,627.9 126.3,628.8 135.5,627.5 144.8,621.2 154.0,624.5 163.3,625.2 172.5,621.0 181.8,631.2 191.0,625.3 200.3,605.3 209.6,626.9 218.8,nan 228.1,nan 237.3,630.7 246.6,629.0 255.8,629.7 265.1,628.7 274.3,619.2 283.6,583.4 292.8,577.6 302.1,599.8 311.3,606.6 320.6,600.5 329.9,606.0 339.1,621.2 348.4,620.2 357.6,622.4 366.9,nan 376.1,nan 385.4,629.5 394.6,630.9 403.9,623.6 413.1,630.7 422.4,631.2 431.6,631.6 440.9,618.1 450.1,630.8 459.4,626.2 468.7,627.6 477.9,617.4 487.2,601.4 496.4,562.2 505.7,536.0 514.9,nan 524.2,nan 533.4,629.6 542.7,630.0 551.9,626.6 561.2,630.9 570.4,632.0 579.7,625.4 589.0,605.5 598.2,606.9 607.5,599.4 616.7,600.4 626.0,616.6 635.2,630.9 644.5,631.7 653.7,630.0 663.0,nan 672.2,nan 681.5,632.0 690.7,631.8 700.0,627.9 709.3,624.2 718.5,631.4 727.8,632.0 737.0,631.3 746.3,632.0 755.5,631.1 764.8,632.0 774.0,631.9 783.3,631.8 792.5,625.7 801.8,631.3 811.0,632.0 820.3,627.1 829.6,623.5 838.8,630.4 848.1,628.9 857.3,624.2 866.6,632.0 875.8,625.1 885.1,626.2 894.3,626.8 903.6,627.2 912.8,631.6 922.1,632.0 931.3,630.2 940.6,632.0 949.9,630.9 959.1,nan 968.4,nan 977.6,629.3 986.9,631.2 996.1,627.0 1005.4,602.3 1014.6,582.4 1023.9,572.4 1033.1,580.8 1042.4,562.3 1051.6,604.0 1060.9,626.5 1070.1,625.8 1079.4,627.7 1088.7,620.7 1097.9,625.4 1107.2,nan 1116.4,nan 1125.7,584.3 1134.9,584.0 1144.2,570.4 1153.4,578.3 1162.7,588.3 1171.9,611.6 1181.2,619.3 1190.4,609.7 1199.7,615.7 1209.0,589.5 1218.2,556.1 1227.5,565.2 1236.7,594.2 1246.0,581.3 1255.2,nan 1264.5,nan 1273.7,629.5 1283.0,630.9 1292.2,625.3 1301.5,626.5 1310.7,622.6 1320.0,627.3"/>
<text x="10" y="530" font-size="12" font-family="Arial">37.84</text>
<text x="10" y="648" font-size="12" font-family="Arial">0.00</text>
</svg>